<svg width="60" height="46" viewBox="0 0 60 46" fill="none" xmlns="http://www.w3.org/2000/svg">
<path d="M17.0664 16.2335L17.0664 2.90456" stroke="#D1A954" stroke-width="3" stroke-linecap="round"/>
<path d="M42.5835 2.00003L57.5835 2.00003" stroke="#D1A954" stroke-width="3" stroke-linecap="round"/>
<path d="M59.0835 44C59.0835 44.8285 58.4119 45.5 57.5835 45.5C56.7551 45.5 56.0835 44.8285 56.0835 44L59.0835 44ZM56.0835 2.00779C56.0835 1.17937 56.7551 0.507793 57.5835 0.507793C58.4119 0.507793 59.0835 1.17937 59.0835 2.00779L56.0835 2.00779ZM56.0835 44L56.0835 2.00779L59.0835 2.00779L59.0835 44L56.0835 44Z" fill="#D1A954"/>
<path d="M18.5664 44C18.5664 44.8285 17.8948 45.5 17.0664 45.5C16.238 45.5 15.5664 44.8285 15.5664 44L18.5664 44ZM15.5664 30.6711C15.5664 29.8427 16.238 29.1711 17.0664 29.1711C17.8948 29.1711 18.5664 29.8427 18.5664 30.6711L15.5664 30.6711ZM15.5664 44L15.5664 30.6711L18.5664 30.6711L18.5664 44L15.5664 44Z" fill="#D1A954"/>
<path d="M17.0186 2L28.5835 2" stroke="#D1A954" stroke-width="3" stroke-linecap="round"/>
<path d="M57.5835 44L17.067 44" stroke="#D1A954" stroke-width="3" stroke-linecap="round"/>
<path d="M17.0664 30.4985C15.6016 31.9441 13.4264 32.5637 11.2073 32.5637C6.12225 32.5637 2.00001 28.4953 2.00001 23.4768C2.00001 18.4582 6.12225 14.3899 11.2073 14.3899C13.4264 14.3899 15.4766 15.1647 17.0664 16.4551" stroke="#D1A954" stroke-width="3"/>
<path d="M28.2615 2.00003C26.7967 3.44567 26.1689 5.59247 26.1689 7.78255C26.1689 12.8011 30.2912 16.8694 35.3762 16.8694C40.4612 16.8694 44.5835 12.8011 44.5835 7.78255C44.5835 5.59248 43.7984 3.56904 42.4909 2.00003" stroke="#D1A954" stroke-width="3"/>
</svg>
