<svg width="46" height="46" viewBox="0 0 46 46" fill="none" xmlns="http://www.w3.org/2000/svg">
<path d="M37.5 4.5C37.5 2.84315 38.8431 1.5 40.5 1.5C42.1569 1.5 43.5 2.84315 43.5 4.5V33.5H37.5V4.5Z" stroke="#D1A954" stroke-width="3"/>
<line x1="36" y1="7.5" x2="45" y2="7.5" stroke="#D1A954" stroke-width="3"/>
<line x1="8.5" y1="13.5" x2="20.5" y2="13.5" stroke="#D1A954" stroke-width="3" stroke-linecap="round"/>
<line x1="6.5" y1="20.5" x2="22.5" y2="20.5" stroke="#D1A954" stroke-width="3" stroke-linecap="round"/>
<path d="M39.0276 44.2515C39.2787 45.041 40.1222 45.4774 40.9117 45.2263C41.7011 44.9752 42.1376 44.1317 41.8865 43.3422L39.0276 44.2515ZM36.0706 34.9547L39.0276 44.2515L41.8865 43.3422L38.9294 34.0453L36.0706 34.9547Z" fill="#D1A954"/>
<path d="M41.9724 44.2515C41.7213 45.041 40.8778 45.4774 40.0883 45.2263C39.2989 44.9752 38.8624 44.1317 39.1135 43.3422L41.9724 44.2515ZM44.9294 34.9547L41.9724 44.2515L39.1135 43.3422L42.0706 34.0453L44.9294 34.9547Z" fill="#D1A954"/>
<mask id="path-7-inside-1" fill="white">
<rect width="29" height="45" rx="2"/>
</mask>
<rect width="29" height="45" rx="2" stroke="#D1A954" stroke-width="6" mask="url(#path-7-inside-1)"/>
</svg>
