<svg width="19" height="12" viewBox="0 0 19 12" fill="none" xmlns="http://www.w3.org/2000/svg">
<rect width="19" height="6" fill="#DA251C"/>
<rect y="6" width="19" height="6" fill="#00923F"/>
<rect width="3" height="12" fill="#F1F0F0"/>
<rect x="2" y="3" width="1" height="1" fill="#DA251C"/>
<rect x="1" y="4" width="1" height="1" fill="#DA251C"/>
<rect x="2" y="5" width="1" height="1" fill="#DA251C"/>
<rect y="5" width="1" height="1" fill="#DA251C"/>
<rect y="6" width="1" height="1" fill="#DA251C"/>
<rect x="2" y="6" width="1" height="1" fill="#DA251C"/>
<rect x="1" y="7" width="1" height="1" fill="#DA251C"/>
<rect x="2" y="8" width="1" height="1" fill="#DA251C"/>
<rect y="10" width="1" height="1" fill="#DA251C"/>
<rect y="1" width="1" height="1" fill="#DA251C"/>
<rect x="2" y="10" width="1" height="1" fill="#DA251C"/>
<rect x="1" y="11" width="1" height="1" fill="#DA251C"/>
<rect x="1" width="1" height="1" fill="#DA251C"/>
<rect x="2" y="1" width="1" height="1" fill="#DA251C"/>
<rect y="8" width="1" height="1" fill="#DA251C"/>
<rect y="3" width="1" height="1" fill="#DA251C"/>
</svg>
