<?xml version="1.0" standalone="no"?>
<!DOCTYPE svg PUBLIC "-//W3C//DTD SVG 20010904//EN"
 "http://www.w3.org/TR/2001/REC-SVG-20010904/DTD/svg10.dtd">
<svg version="1.0" xmlns="http://www.w3.org/2000/svg"
 width="700.000000pt" height="700.000000pt" viewBox="0 0 700.000000 700.000000"
 preserveAspectRatio="xMidYMid meet">
<metadata>
Created by potrace 1.14, written by Peter Selinger 2001-2017
</metadata>
<g transform="translate(0.000000,700.000000) scale(0.100000,-0.100000)"
fill="#000000" stroke="none">
<path d="M1352 5428 c-9 -9 -12 -388 -12 -1780 l0 -1768 -102 0 c-57 0 -110
-5 -118 -10 -12 -7 -16 -37 -18 -138 -3 -109 -1 -132 13 -146 14 -14 47 -16
260 -16 231 0 245 1 255 19 5 11 10 74 10 140 0 153 2 151 -131 151 l-99 0 -2
1778 c-3 1772 -3 1777 -23 1780 -11 1 -26 -3 -33 -10z"/>
<path d="M5377 5363 c-4 -3 -7 -853 -7 -1888 0 -1450 3 -1884 12 -1893 18 -18
491 -17 507 2 8 10 10 513 9 1897 l-3 1884 -256 3 c-140 1 -258 -1 -262 -5z"/>
<path d="M2062 5338 c-9 -9 -12 -390 -12 -1655 l0 -1643 -99 0 c-55 0 -106 -3
-115 -6 -14 -5 -16 -35 -16 -229 0 -194 2 -224 16 -229 9 -3 122 -6 253 -6
171 0 240 3 249 12 17 17 17 429 0 446 -8 8 -48 12 -115 12 l-103 0 0 1643 c0
1676 0 1667 -35 1667 -6 0 -16 -5 -23 -12z"/>
<path d="M4665 5258 c-3 -7 -4 -841 -3 -1853 l3 -1840 249 -3 c175 -2 253 1
262 9 19 16 21 3668 2 3687 -18 18 -507 17 -513 0z"/>
<path d="M636 5205 c-3 -9 -6 -691 -6 -1516 l0 -1499 -108 0 c-71 0 -112 -4
-120 -12 -17 -17 -17 -579 0 -596 19 -19 491 -17 507 2 8 9 11 99 9 307 l-3
294 -107 3 -108 3 -2 1512 -3 1512 -26 3 c-17 2 -29 -3 -33 -13z"/>
<path d="M6087 5043 c-4 -3 -7 -781 -7 -1728 0 -1325 3 -1724 12 -1733 18 -18
491 -17 507 2 8 10 10 471 9 1737 l-3 1724 -256 3 c-140 1 -258 -1 -262 -5z"/>
<path d="M2770 4961 c-7 -13 -10 -404 -10 -1195 l0 -1175 -112 -3 -113 -3 -3
-490 c-1 -269 0 -500 3 -513 l5 -22 258 2 257 3 0 510 0 510 -107 3 -108 3 0
1175 c0 791 -3 1182 -10 1195 -6 10 -19 19 -30 19 -11 0 -24 -9 -30 -19z"/>
<path d="M3952 4718 c-19 -19 -17 -3131 2 -3147 9 -8 87 -11 262 -9 l249 3 0
1580 0 1580 -250 3 c-187 2 -254 -1 -263 -10z"/>
<path d="M3477 4004 c-4 -4 -7 -123 -7 -265 l0 -258 -112 -3 -113 -3 0 -955 0
-955 249 -3 c175 -2 253 1 262 9 19 16 21 1878 2 1897 -8 8 -48 12 -115 12
l-103 0 -2 263 -3 262 -25 3 c-14 2 -29 0 -33 -4z"/>
</g>
</svg>
