<svg width="19" height="12" viewBox="0 0 19 12" fill="none" xmlns="http://www.w3.org/2000/svg">
<rect width="19" height="12" fill="#00AFCA"/>
<rect x="1" y="1" width="1" height="1" fill="#FEC50C"/>
<rect x="1" y="3" width="1" height="1" fill="#FEC50C"/>
<rect x="1" y="2" width="1" height="1" fill="#FEC50C"/>
<rect x="1" y="4" width="1" height="1" fill="#FEC50C"/>
<rect x="1" y="8" width="1" height="1" fill="#FEC50C"/>
<rect x="1" y="10" width="1" height="1" fill="#FEC50C"/>
<rect x="1" y="5" width="1" height="1" fill="#FEC50C"/>
<rect x="10" y="5" width="1" height="1" fill="#FEC50C"/>
<rect x="10" y="7" width="1" height="1" fill="#FEC50C"/>
<rect x="11" y="8" width="1" height="1" fill="#FEC50C"/>
<rect x="9" y="8" width="1" height="1" fill="#FEC50C"/>
<rect x="8" y="7" width="1" height="1" fill="#FEC50C"/>
<rect x="10" y="4" width="1" height="1" fill="#FEC50C"/>
<rect x="11" y="5" width="1" height="1" fill="#FEC50C"/>
<rect x="10" y="6" width="1" height="1" fill="#FEC50C"/>
<rect x="9" y="5" width="1" height="1" fill="#FEC50C"/>
<rect x="12" y="7" width="1" height="1" fill="#FEC50C"/>
<rect x="11" y="4" width="1" height="1" fill="#FEC50C"/>
<rect x="9" y="4" width="1" height="1" fill="#FEC50C"/>
<rect x="9" y="6" width="1" height="1" fill="#FEC50C"/>
<rect x="11" y="6" width="1" height="1" fill="#FEC50C"/>
<rect x="1" y="6" width="1" height="1" fill="#FEC50C"/>
<rect x="1" y="9" width="1" height="1" fill="#FEC50C"/>
<rect x="1" y="7" width="1" height="1" fill="#FEC50C"/>
<rect x="1" y="11" width="1" height="1" fill="#FEC50C"/>
<rect x="1" width="1" height="1" fill="#FEC50C"/>
</svg>
